# Blender v2.79 (sub 0) OBJ File: ''
# www.blender.org
o Cube
v 1.000000 -1.000000 -1.000000
v 2.210434 -1.000000 2.051278
v -1.000000 -1.000000 1.000000
v -1.725917 -1.000000 -1.734109
v 1.302421 6.517063 0.191083
v 0.047553 4.734684 1.581529
v -0.547466 3.874054 0.152132
v 0.199633 4.575458 -1.238315
vn 0.0000 -1.0000 0.0000
vn -0.8163 0.5725 -0.0764
vn 0.9887 0.1353 0.0642
vn -0.5485 0.0154 0.8360
vn -0.9743 0.2228 0.0329
vn 0.4796 0.0314 -0.8769
s off
f 1//1 2//1 3//1 4//1
f 5//2 8//2 7//2 6//2
f 1//3 5//3 6//3 2//3
f 2//4 6//4 7//4 3//4
f 3//5 7//5 8//5 4//5
f 5//6 1//6 4//6 8//6
