# Blender v2.79 (sub 0) OBJ File: ''
# www.blender.org
o Cube_Cube.002
v 0.731705 -0.153893 1.769081
v 0.906331 0.451150 1.769081
v 0.936921 -0.153893 -0.230919
v 0.936921 0.515593 -0.230919
v 1.768366 -0.153893 1.769081
v 1.552896 0.467804 1.769081
v 1.768366 -0.153893 -0.230919
v 1.768366 0.691183 -0.230919
v 0.900383 -0.183313 -0.551505
v 0.967419 0.434819 -0.551505
v 1.620682 -0.183313 -0.551505
v 1.636219 0.545014 -0.551505
v 2.034292 -0.153893 1.769081
v 1.888722 0.515593 1.769081
v 2.034292 -0.153893 -0.230919
v 2.034292 0.554329 -0.230919
v 0.936921 -0.153893 2.411767
v 0.936921 0.515593 2.411767
v 1.768366 -0.153893 2.411767
v 1.552896 0.647151 2.411767
v 2.034292 -0.153893 2.411767
v 2.034292 0.515593 2.411767
vn -0.9892 0.1355 -0.0561
vn -0.1783 0.9361 -0.3031
vn 0.1460 0.9862 0.0778
vn -0.9759 0.1337 0.1723
vn 0.0000 -1.0000 -0.0000
vn -0.1287 0.9897 0.0633
vn 0.0000 0.0000 -1.0000
vn -0.9986 0.0520 0.0005
vn 0.9174 -0.0091 -0.3979
vn 0.0000 -0.9958 0.0914
vn 0.9938 0.1050 0.0372
vn 0.0000 0.0000 1.0000
vn 0.9879 0.1074 -0.1119
vn 0.1008 0.9837 -0.1487
vn -0.1146 0.9765 -0.1825
s off
f 1//1 2//1 4//1 3//1
f 4//2 8//2 12//2 10//2
f 8//3 6//3 14//3 16//3
f 2//4 1//4 17//4 18//4
f 3//5 7//5 5//5 1//5
f 8//6 4//6 2//6 6//6
f 9//7 10//7 12//7 11//7
f 3//8 4//8 10//8 9//8
f 8//9 7//9 11//9 12//9
f 7//10 3//10 9//10 11//10
f 15//11 16//11 14//11 13//11
f 7//7 8//7 16//7 15//7
f 5//5 13//5 21//5 19//5
f 5//5 7//5 15//5 13//5
f 19//12 20//12 18//12 17//12
f 20//12 19//12 21//12 22//12
f 13//13 14//13 22//13 21//13
f 1//5 5//5 19//5 17//5
f 14//14 6//14 20//14 22//14
f 6//15 2//15 18//15 20//15
