# Blender v2.79 (sub 0) OBJ File: ''
# www.blender.org
o Cube.001_Cube.003
v 2.559247 -0.336784 1.728278
v 2.559247 0.566006 1.845843
v 2.436759 -0.363138 0.871276
v 2.672423 0.529329 0.975683
v 3.302654 -0.336784 1.728278
v 3.302654 0.484176 1.728278
v 3.302654 -0.336784 0.906465
v 3.302654 0.594222 0.906465
v 2.559247 -0.336784 2.720979
v 2.559247 0.566006 2.641872
v 3.302654 -0.336784 2.500832
v 3.401028 0.417791 2.372547
v 4.101617 -0.336784 1.728278
v 4.101617 0.566006 1.728278
v 4.174750 -0.339303 0.950433
v 4.063346 0.508160 0.835866
v 4.101617 -0.336784 2.314413
v 4.101617 0.566006 2.314413
v 2.559247 -0.336784 -0.392245
v 2.666202 0.566006 -0.274357
v 3.302654 -0.336784 -0.392245
v 3.302654 0.479538 -0.252875
v 4.150918 -0.373703 -0.390935
v 4.008461 0.566006 -0.202763
v 3.488321 0.671305 1.507472
v 3.488321 0.714661 1.351340
v 3.803094 0.703544 1.507472
v 3.654716 0.680754 1.244870
vn -0.9915 0.1301 0.0006
vn 0.0166 -0.9998 -0.0095
vn -0.6738 0.7300 0.1145
vn 0.0000 -1.0000 0.0000
vn 0.0161 -0.9998 0.0145
vn 0.0184 0.9988 0.0445
vn 0.3021 0.1007 0.9479
vn 0.1519 0.9878 0.0352
vn -0.1488 0.9867 0.0651
vn -1.0000 -0.0000 0.0000
vn 0.9977 0.0647 0.0185
vn 1.0000 0.0000 0.0000
vn -0.0006 0.9997 -0.0258
vn 0.1541 0.0672 0.9858
vn -0.0015 -1.0000 0.0015
vn 0.0246 0.1465 -0.9889
vn 0.0266 0.1854 -0.9823
vn 0.9894 0.1418 -0.0313
vn -0.0233 -0.9996 0.0132
vn 0.0158 0.9994 -0.0324
vn -0.9805 0.1921 -0.0405
vn 0.0133 0.9989 0.0444
vn 0.0638 0.9489 -0.3090
vn 0.3706 0.9204 -0.1242
vn -0.0812 0.7930 0.6038
s off
f 1//1 2//1 4//1 3//1
f 7//2 3//2 19//2 21//2
f 8//3 6//3 25//3 26//3
f 1//4 5//4 11//4 9//4
f 3//5 7//5 5//5 1//5
f 8//6 4//6 2//6 6//6
f 11//7 12//7 10//7 9//7
f 6//8 2//8 10//8 12//8
f 6//9 12//9 18//9 14//9
f 2//10 1//10 9//10 10//10
f 15//11 16//11 14//11 13//11
f 13//12 14//12 18//12 17//12
f 8//13 16//13 24//13 22//13
f 12//14 11//14 17//14 18//14
f 5//15 7//15 15//15 13//15
f 11//4 5//4 13//4 17//4
f 19//16 20//16 22//16 21//16
f 21//17 22//17 24//17 23//17
f 16//18 15//18 23//18 24//18
f 15//19 7//19 21//19 23//19
f 4//20 8//20 22//20 20//20
f 3//21 4//21 20//21 19//21
f 26//22 25//22 27//22 28//22
f 16//23 8//23 26//23 28//23
f 14//24 16//24 28//24 27//24
f 6//25 14//25 27//25 25//25
